<svg xmlns="http://www.w3.org/2000/svg" width="1200" height="630" viewBox="0 0 1200 630" role="img" aria-labelledby="title desc"><title id="title">InsufficiencyBench</title><desc id="desc">Check for decisive missing facts before answering</desc><rect width="1200" height="630" fill="#f2f8f6"/><rect width="1200" height="20" fill="#9b6b18"/><text x="80" y="112" font-family="Arial, sans-serif" font-size="48" font-weight="700" fill="#183247">InsufficiencyBench</text><text x="80" y="170" font-family="Arial, sans-serif" font-size="27" fill="#486878">Check for decisive missing facts before answering</text><path d="M350 374 L372 374" stroke="#9b6b18" stroke-width="5" fill="none"/><path d="M362 364 L372 374 L362 384" fill="none" stroke="#9b6b18" stroke-width="5"/><path d="M600 374 L622 374" stroke="#9b6b18" stroke-width="5" fill="none"/><path d="M612 364 L622 374 L612 384" fill="none" stroke="#9b6b18" stroke-width="5"/><path d="M850 374 L872 374" stroke="#9b6b18" stroke-width="5" fill="none"/><path d="M862 364 L872 374 L862 384" fill="none" stroke="#9b6b18" stroke-width="5"/><g><rect x="140" y="330" width="210" height="88" rx="16" fill="#ffffff" stroke="#9b6b18" stroke-width="3"/><text x="245" y="382" text-anchor="middle" font-family="Arial, sans-serif" font-size="22" fill="#183247">Question</text></g><g><rect x="390" y="330" width="210" height="88" rx="16" fill="#ffffff" stroke="#9b6b18" stroke-width="3"/><text x="495" y="382" text-anchor="middle" font-family="Arial, sans-serif" font-size="22" fill="#183247">Sufficiency</text></g><g><rect x="640" y="330" width="210" height="88" rx="16" fill="#ffffff" stroke="#9b6b18" stroke-width="3"/><text x="745" y="382" text-anchor="middle" font-family="Arial, sans-serif" font-size="22" fill="#183247">Clarify</text></g><g><rect x="890" y="330" width="210" height="88" rx="16" fill="#ffffff" stroke="#9b6b18" stroke-width="3"/><text x="995" y="382" text-anchor="middle" font-family="Arial, sans-serif" font-size="22" fill="#183247">Answer</text></g><text x="80" y="565" font-family="Arial, sans-serif" font-size="20" fill="#627b88">Daily Generative AI Brief · Editorial diagram · August 23, 2026</text></svg>